<svg xmlns="http://www.w3.org/2000/svg" viewBox="0 0 238.49 36.83"><defs><style>.cls-1{fill:#32abd6;}</style></defs><g id="レイヤー_2" data-name="レイヤー 2"><g id="レイヤー_1-2" data-name="レイヤー 1"><path class="cls-1" d="M190.3,4.37A4.38,4.38,0,1,1,185.93,0,4.38,4.38,0,0,1,190.3,4.37Z"/><path class="cls-1" d="M113.88,21.27a15.88,15.88,0,0,0-.61-2.8,13.08,13.08,0,1,0-1,12.36c.34-.52.35-1.63-.52-1.63h-5.85a6,6,0,0,1-4.58,1.94A5.88,5.88,0,0,1,95.22,26h17.17C113.1,26,114,24.05,113.88,21.27Zm-7.87.32H96.17s-1.11,0-.85-1.32A5.82,5.82,0,0,1,97,17.85l0,0,0,0a5.63,5.63,0,0,1,.73-.52l.2-.11a6.62,6.62,0,0,1,.66-.3c.11,0,.22-.09.33-.12a4.47,4.47,0,0,1,.63-.16c.14,0,.27-.07.41-.09a8.09,8.09,0,0,1,.86-.07h.43a8.06,8.06,0,0,1,.87.07c.14,0,.27.06.4.09a4.28,4.28,0,0,1,.64.16c.11,0,.22.08.33.12a6.62,6.62,0,0,1,.66.3l.2.11a6.41,6.41,0,0,1,.73.52l0,0v0a5.75,5.75,0,0,1,1.68,2.42C107.12,21.59,106,21.59,106,21.59Z"/><rect class="cls-1" x="182.33" y="11.37" width="7.19" height="24.79" rx="2.27"/><path class="cls-1" d="M201.09,14.24v-.6a2.27,2.27,0,0,0-2.27-2.27h-2.65a2.27,2.27,0,0,0-2.27,2.27v2.77l0,0V30.16h0v3.73a2.27,2.27,0,0,0,2.27,2.27h2.65a2.27,2.27,0,0,0,2.27-2.27V23.53c.32-4.1,2.86-6,6.55-6,.55,0,1.92,0,2.52.06V12.22s-.12-.83-.89-.83C206,11.39,202.81,12.33,201.09,14.24Z"/><path class="cls-1" d="M236.22,11.37h-2.65a2.27,2.27,0,0,0-2.27,2.27l0,10c0,4.56-2.4,6.68-5.72,6.68s-5-1.84-5-6l0-10.68a2.27,2.27,0,0,0-2.27-2.27h-2.65a2.27,2.27,0,0,0-2.27,2.27V24A12.55,12.55,0,0,0,225,36.48c.32,0,.63.05,1,.05a12.57,12.57,0,0,0,5.71-1.38l0,0h0a2.24,2.24,0,0,0,1.87,1h2.65a2.27,2.27,0,0,0,2.27-2.27V13.64A2.27,2.27,0,0,0,236.22,11.37Z"/><path class="cls-1" d="M79.39,25.79A10.48,10.48,0,0,0,86,15.61C86,8.37,80.63,3.9,72,3.9H65.48a7.43,7.43,0,0,0-7.43,7.43V33.91a2.27,2.27,0,0,0,2.27,2.27H63a2.27,2.27,0,0,0,2.27-2.27V27.16l6.78,0h.37l6.22,9s5.78,0,6.42,0,1.06-.76.51-1.55ZM71.6,21.23l-4.92.07A1.46,1.46,0,0,1,65.24,20V13.88a1.36,1.36,0,0,0,0-.2V11.52a1.47,1.47,0,0,1,1.46-1.47L71.6,10a11,11,0,0,1,1.19.07c3.76.34,5.68,2.33,5.68,5.55C78.47,19.11,76.16,21.23,71.6,21.23Z"/><path class="cls-1" d="M167.42,11a8.26,8.26,0,0,0-6.48,3.12c-.47.7-.52,1.21-.73,1.42a5.88,5.88,0,0,1-.92-1.36A7.63,7.63,0,0,0,153,11a12.77,12.77,0,0,0-4.59.81,2.3,2.3,0,0,0-1.29-.41h-2.66a2.28,2.28,0,0,0-2.27,2.27V33.93a2.28,2.28,0,0,0,2.27,2.26h2.66a2.27,2.27,0,0,0,2.26-2.26V26.16h0V23.07c0-4,.7-5.86,3.59-5.87h0c2.9,0,3.53,1.68,3.63,5.23a1.49,1.49,0,0,0,0,.21V33.89a2.27,2.27,0,0,0,2.26,2.27h2.66a2.28,2.28,0,0,0,2.27-2.27V22.64a2.23,2.23,0,0,0,0-.27c.1-3.51.74-5.17,3.62-5.17h0c2.89,0,3.59,1.87,3.59,5.87V33.89a2.27,2.27,0,0,0,2.27,2.27h2.66a2.27,2.27,0,0,0,2.26-2.27V22C178.2,14.41,173.32,11,167.42,11Z"/><path class="cls-1" d="M118.9,34.88a3.54,3.54,0,0,1-2.09-3.08V29.89a1.37,1.37,0,0,1,2.09-1.33s5.25,2.36,8.29,2.36c3.32,0,3.85-1,3.85-2.41,0-4.05-14.26.25-14.26-9.66,0-4.7,4.24-8,11.47-8a17.3,17.3,0,0,1,8,1.8c1.92,1,2.11,1.27,1.71,2.83l-.25,1.1c-.37,1.32-1,1.92-2.17,1.5,0,0-5-1.79-7.24-1.79-3.22,0-4.26,1-4.26,2.3,0,4.24,14.63.14,14.63,9.91,0,4.61-4.29,7.88-11.7,7.88A25.18,25.18,0,0,1,118.9,34.88Z"/><path class="cls-1" d="M44.8,8.32a5.94,5.94,0,0,0-5.45-3.61H5.91a6,6,0,0,0-2.3.46A5.94,5.94,0,0,0,0,10.62V30.47a5.84,5.84,0,0,0,.47,2.3,5.78,5.78,0,0,0,2.14,2.6,5.86,5.86,0,0,0,3.3,1H39.35a5.83,5.83,0,0,0,2.3-.46,5.91,5.91,0,0,0,3.61-5.45V10.62A6,6,0,0,0,44.8,8.32ZM41.93,30.47a2.42,2.42,0,0,1-.21,1,2.59,2.59,0,0,1-.93,1.14,2.55,2.55,0,0,1-1.44.44H5.91a2.62,2.62,0,0,1-1-.2,2.67,2.67,0,0,1-1.14-.94,2.62,2.62,0,0,1-.44-1.44V10.62a2.63,2.63,0,0,1,.21-1A2.56,2.56,0,0,1,5.91,8H39.35a2.46,2.46,0,0,1,1,.21,2.59,2.59,0,0,1,1.14.93,2.55,2.55,0,0,1,.44,1.44Z"/><path class="cls-1" d="M36.45,12.47H31.82L23.44,28.62h13a1.4,1.4,0,0,0,1.4-1.4V13.88A1.41,1.41,0,0,0,36.45,12.47Z"/><path class="cls-1" d="M17.2,23.35a5.21,5.21,0,0,0,3.3-5.06c0-3.6-2.68-5.82-7-5.82H10.29A3.69,3.69,0,0,0,6.6,16.16V27.49a1.14,1.14,0,0,0,1.13,1.13H9.05a1.13,1.13,0,0,0,1.12-1.13V24h3.55l3.09,4.46h4Zm-3.87-2.27-2.44,0a.73.73,0,0,1-.72-.63V17.43a.34.34,0,0,0,0-.1V16.26a.73.73,0,0,1,.73-.73l2.44,0a5.88,5.88,0,0,1,.6,0c1.86.17,2.81,1.16,2.81,2.76S15.6,21.08,13.33,21.08Z"/></g></g></svg>